<svg width="1271" height="139" viewBox="0 0 1271 139" fill="none" xmlns="http://www.w3.org/2000/svg">
<path d="M51.0094 115.392C40.3307 115.392 31.2071 112.956 23.6387 108.083C16.0703 103.21 10.2125 96.471 6.06548 87.8659C2.02208 79.157 0.000386874 69.1522 0.000386874 57.8514C0.000386874 46.758 2.07392 36.8569 6.22099 28.148C10.3681 19.4392 16.3295 12.5965 24.1052 7.62004C31.9847 2.53989 41.4193 -0.000193448 52.409 -0.000193448C61.9473 -0.000193448 69.9822 1.60679 76.5138 4.82077C83.1492 7.93108 88.4367 12.3892 92.3764 18.1951C96.3161 24.001 99.0635 30.8436 100.619 38.7231L76.2028 39.8117C75.0624 33.6948 72.626 28.8738 68.8936 25.3488C65.2649 21.7201 59.8219 19.9057 52.5645 19.9057C46.2402 19.9057 40.9527 21.5646 36.702 24.8822C32.5549 28.1999 29.4446 32.7098 27.3711 38.412C25.4012 44.1143 24.4163 50.5941 24.4163 57.8514C24.4163 65.2125 25.4012 71.7441 27.3711 77.4464C29.4446 83.0449 32.5549 87.4512 36.702 90.6651C40.9527 93.8791 46.3957 95.4861 53.0311 95.4861C57.9039 95.4861 62.1028 94.5012 65.6278 92.5313C69.2565 90.5615 72.0557 87.8659 74.0256 84.4445C76.0991 81.0232 77.3433 77.1353 77.758 72.7809H52.5645V55.5187H100.93V112.904H86.3113L85.0672 89.2655L87.8665 90.5096C86.8297 95.3824 84.5488 99.685 81.0238 103.417C77.4988 107.15 73.1444 110.105 67.9605 112.282C62.8803 114.355 57.23 115.392 51.0094 115.392ZM129.433 112.904C122.59 112.904 117.251 111.193 113.415 107.772C109.579 104.35 107.661 98.8038 107.661 91.1317V2.48804H130.988V88.6434C130.988 91.1317 131.558 92.8942 132.699 93.931C133.839 94.9677 135.498 95.4861 137.675 95.4861H143.274V112.904H129.433ZM181.796 114.77C173.295 114.77 165.882 113.007 159.558 109.482C153.233 105.854 148.309 100.774 144.784 94.242C141.259 87.7104 139.496 80.0383 139.496 71.2257C139.496 62.4132 141.259 54.793 144.784 48.365C148.309 41.8334 153.233 36.7532 159.558 33.1245C165.882 29.4958 173.295 27.6815 181.796 27.6815C190.298 27.6815 197.711 29.4958 204.035 33.1245C210.359 36.7532 215.284 41.8334 218.809 48.365C222.334 54.793 224.097 62.4132 224.097 71.2257C224.097 80.0383 222.334 87.7104 218.809 94.242C215.284 100.774 210.359 105.854 204.035 109.482C197.711 113.007 190.298 114.77 181.796 114.77ZM181.796 96.8857C187.602 96.8857 192.112 94.6567 195.326 90.1986C198.54 85.6368 200.147 79.3125 200.147 71.2257C200.147 63.139 198.54 56.8665 195.326 52.4084C192.112 47.8466 187.602 45.5657 181.796 45.5657C175.99 45.5657 171.481 47.8466 168.267 52.4084C165.053 56.8665 163.446 63.139 163.446 71.2257C163.446 79.3125 165.053 85.6368 168.267 90.1986C171.481 94.6567 175.99 96.8857 181.796 96.8857ZM275.634 114.77C269.828 114.77 264.748 113.526 260.393 111.038C256.143 108.549 252.825 105.076 250.441 100.618L249.974 112.904H227.735V2.48804H251.063V41.3668C253.24 37.5308 256.454 34.3168 260.705 31.7249C264.955 29.0293 269.932 27.6815 275.634 27.6815C282.684 27.6815 288.801 29.4958 293.985 33.1245C299.169 36.6495 303.16 41.6779 305.959 48.2095C308.862 54.7411 310.314 62.4132 310.314 71.2257C310.314 80.0383 308.862 87.7104 305.959 94.242C303.16 100.774 299.169 105.854 293.985 109.482C288.801 113.007 282.684 114.77 275.634 114.77ZM269.102 96.8857C274.286 96.8857 278.433 94.6567 281.544 90.1986C284.758 85.6368 286.365 79.3125 286.365 71.2257C286.365 63.139 284.809 56.8665 281.699 52.4084C278.589 47.8466 274.442 45.5657 269.258 45.5657C265.422 45.5657 262.104 46.6025 259.305 48.676C256.609 50.6459 254.536 53.5489 253.084 57.3849C251.736 61.2209 251.063 65.8346 251.063 71.2257C251.063 76.5133 251.736 81.075 253.084 84.9111C254.536 88.7471 256.609 91.7019 259.305 93.7754C262.104 95.849 265.37 96.8857 269.102 96.8857ZM339.381 114.77C330.775 114.77 323.725 112.8 318.231 108.86C312.839 104.817 310.144 99.2185 310.144 92.0648C310.144 84.7037 312.425 79.0533 316.986 75.1136C321.652 71.0702 328.495 68.1154 337.514 66.2493L364.419 60.9617C364.419 55.5706 363.174 51.5272 360.686 48.8316C358.302 46.0323 354.828 44.6327 350.267 44.6327C345.809 44.6327 342.335 45.6694 339.847 47.743C337.359 49.7128 335.752 52.6676 335.026 56.6073L311.543 55.5187C313.099 46.3952 317.194 39.5007 323.829 34.8352C330.568 30.0661 339.381 27.6815 350.267 27.6815C362.708 27.6815 372.039 30.6363 378.259 36.5459C384.584 42.4554 387.746 51.1125 387.746 62.5169V90.9762C387.746 93.3607 388.109 94.9677 388.834 95.7971C389.664 96.5229 390.856 96.8857 392.411 96.8857H394.744V112.904C394.018 113.111 392.826 113.319 391.167 113.526C389.612 113.733 388.057 113.837 386.502 113.837C383.184 113.837 380.074 113.267 377.171 112.126C374.372 110.986 372.091 109.068 370.328 106.372C368.566 103.573 367.684 99.6332 367.684 94.553L369.706 96.1082C368.669 99.8405 366.803 103.106 364.108 105.906C361.516 108.705 358.094 110.882 353.844 112.437C349.696 113.992 344.875 114.77 339.381 114.77ZM344.979 98.7519C348.815 98.7519 352.185 98.0262 355.088 96.5747C357.991 95.0196 360.271 92.7905 361.93 89.8876C363.589 86.9846 364.419 83.5633 364.419 79.6236V75.5802L345.446 79.6236C341.713 80.3493 338.862 81.5934 336.892 83.3559C335.026 85.0148 334.093 87.192 334.093 89.8876C334.093 92.6868 335.026 94.864 336.892 96.4192C338.759 97.9744 341.454 98.7519 344.979 98.7519ZM416.358 112.904C409.516 112.904 404.176 111.193 400.34 107.772C396.504 104.35 394.586 98.8038 394.586 91.1317V2.48804H417.913V88.6434C417.913 91.1317 418.484 92.8942 419.624 93.931C420.764 94.9677 422.423 95.4861 424.6 95.4861H430.199V112.904H416.358ZM432.48 112.904V2.48804H480.845C488.932 2.48804 495.93 3.83584 501.839 6.53144C507.853 9.22703 512.466 13.0631 515.68 18.0396C518.894 22.9124 520.501 28.7183 520.501 35.4573C520.501 40.5374 519.413 45.0474 517.235 48.9871C515.162 52.9268 512.259 56.1408 508.526 58.629C504.898 61.1173 500.699 62.6724 495.93 63.2945L495.463 61.8948C502.824 61.8948 508.423 63.5018 512.259 66.7158C516.095 69.8261 518.272 74.6471 518.79 81.1787L521.59 112.904H497.485L495.463 84.9111C495.152 80.6603 493.804 77.55 491.42 75.5802C489.139 73.5066 485.199 72.4699 479.601 72.4699H456.118V112.904H432.48ZM456.118 52.7194H478.201C483.903 52.7194 488.309 51.4235 491.42 48.8316C494.634 46.136 496.241 42.3518 496.241 37.479C496.241 32.5025 494.634 28.7701 491.42 26.2819C488.206 23.6899 483.54 22.394 477.423 22.394H456.118V52.7194ZM552.6 114.77C543.995 114.77 536.945 112.8 531.45 108.86C526.059 104.817 523.364 99.2185 523.364 92.0648C523.364 84.7037 525.644 79.0533 530.206 75.1136C534.872 71.0702 541.714 68.1154 550.734 66.2493L577.638 60.9617C577.638 55.5706 576.394 51.5272 573.906 48.8316C571.521 46.0323 568.048 44.6327 563.486 44.6327C559.028 44.6327 555.555 45.6694 553.067 47.743C550.579 49.7128 548.972 52.6676 548.246 56.6073L524.763 55.5187C526.318 46.3952 530.414 39.5007 537.049 34.8352C543.788 30.0661 552.6 27.6815 563.486 27.6815C575.928 27.6815 585.259 30.6363 591.479 36.5459C597.803 42.4554 600.966 51.1125 600.966 62.5169V90.9762C600.966 93.3607 601.328 94.9677 602.054 95.7971C602.884 96.5229 604.076 96.8857 605.631 96.8857H607.964V112.904C607.238 113.111 606.046 113.319 604.387 113.526C602.832 113.733 601.277 113.837 599.721 113.837C596.404 113.837 593.294 113.267 590.391 112.126C587.591 110.986 585.31 109.068 583.548 106.372C581.785 103.573 580.904 99.6332 580.904 94.553L582.926 96.1082C581.889 99.8405 580.023 103.106 577.327 105.906C574.735 108.705 571.314 110.882 567.063 112.437C562.916 113.992 558.095 114.77 552.6 114.77ZM558.199 98.7519C562.035 98.7519 565.404 98.0262 568.307 96.5747C571.21 95.0196 573.491 92.7905 575.15 89.8876C576.809 86.9846 577.638 83.5633 577.638 79.6236V75.5802L558.665 79.6236C554.933 80.3493 552.082 81.5934 550.112 83.3559C548.246 85.0148 547.313 87.192 547.313 89.8876C547.313 92.6868 548.246 94.864 550.112 96.4192C551.978 97.9744 554.674 98.7519 558.199 98.7519ZM609.325 112.904V29.5477H630.319L631.252 53.9636L628.297 53.186C629.127 46.9654 630.786 41.9889 633.274 38.2565C635.866 34.5242 639.08 31.8286 642.916 30.1697C646.752 28.5109 650.951 27.6815 655.513 27.6815C661.526 27.6815 666.606 28.9775 670.753 31.5694C675.004 34.1613 678.218 37.8418 680.395 42.611C682.676 47.2764 683.816 52.8231 683.816 59.2511V112.904H660.489V67.0268C660.489 62.5687 660.126 58.7845 659.4 55.6742C658.675 52.5639 657.379 50.2312 655.513 48.676C653.646 47.0172 651.054 46.1878 647.737 46.1878C642.864 46.1878 639.132 48.0021 636.54 51.6308C633.948 55.1558 632.652 60.2878 632.652 67.0268V112.904H609.325ZM728.859 138.097C720.875 138.097 714.188 137.112 708.797 135.142C703.51 133.173 699.259 130.425 696.045 126.9C692.935 123.375 690.757 119.332 689.513 114.77L713.463 113.059C714.292 115.755 715.847 117.88 718.128 119.435C720.513 120.991 724.089 121.768 728.859 121.768C734.457 121.768 738.708 120.42 741.611 117.725C744.617 115.133 746.121 110.934 746.121 105.128V96.2637C744.151 100.1 740.989 103.21 736.634 105.595C732.28 107.875 727.407 109.016 722.016 109.016C715.173 109.016 709.108 107.357 703.821 104.039C698.533 100.618 694.386 95.9008 691.379 89.8876C688.476 83.7706 687.025 76.6169 687.025 68.4265C687.025 60.4434 688.476 53.3933 691.379 47.2764C694.386 41.1595 698.481 36.3904 703.665 32.969C708.953 29.444 714.966 27.6815 721.705 27.6815C727.822 27.6815 732.954 29.0293 737.101 31.7249C741.352 34.4205 744.566 37.9973 746.743 42.4554V29.5477H769.604V104.662C769.604 112.126 767.893 118.295 764.472 123.168C761.05 128.144 756.281 131.877 750.164 134.365C744.047 136.853 736.945 138.097 728.859 138.097ZM728.703 91.7537C734.094 91.7537 738.345 89.6802 741.455 85.5331C744.669 81.3861 746.276 75.632 746.276 68.271C746.276 63.3981 745.551 59.1992 744.099 55.6742C742.751 52.1492 740.73 49.4536 738.034 47.5874C735.442 45.7213 732.332 44.7882 728.703 44.7882C723.105 44.7882 718.75 46.9135 715.64 51.1643C712.529 55.415 710.974 61.1173 710.974 68.271C710.974 75.5283 712.581 81.2824 715.795 85.5331C719.009 89.6802 723.312 91.7537 728.703 91.7537ZM815.173 114.77C806.672 114.77 799.259 113.007 792.934 109.482C786.714 105.854 781.841 100.774 778.316 94.242C774.895 87.7104 773.184 80.0383 773.184 71.2257C773.184 62.4132 774.895 54.793 778.316 48.365C781.841 41.8334 786.714 36.7532 792.934 33.1245C799.155 29.4958 806.516 27.6815 815.018 27.6815C823.312 27.6815 830.517 29.4958 836.634 33.1245C842.751 36.7532 847.468 41.9371 850.786 48.676C854.207 55.415 855.918 63.45 855.918 72.7809V77.4464H797.289C797.6 84.0817 799.362 89.0063 802.576 92.2203C805.894 95.4343 810.248 97.0413 815.64 97.0413C819.579 97.0413 822.845 96.2118 825.437 94.553C828.133 92.8942 830.051 90.3541 831.191 86.9328L854.674 88.3324C852.497 96.6266 847.883 103.106 840.833 107.772C833.783 112.437 825.23 114.77 815.173 114.77ZM797.289 63.139H831.969C831.658 57.022 829.947 52.4603 826.837 49.4536C823.83 46.447 819.89 44.9437 815.018 44.9437C810.145 44.9437 806.101 46.5507 802.887 49.7647C799.777 52.875 797.911 57.3331 797.289 63.139ZM860.693 112.904V2.48804H936.895V22.394H871.268L884.331 8.86417V59.4066L871.268 49.1426H934.096V68.7375H871.268L884.331 58.4735V112.904H860.693ZM963.197 114.77C954.592 114.77 947.542 112.8 942.047 108.86C936.656 104.817 933.96 99.2185 933.96 92.0648C933.96 84.7037 936.241 79.0533 940.803 75.1136C945.468 71.0702 952.311 68.1154 961.331 66.2493L988.235 60.9617C988.235 55.5706 986.991 51.5272 984.502 48.8316C982.118 46.0323 978.645 44.6327 974.083 44.6327C969.625 44.6327 966.152 45.6694 963.663 47.743C961.175 49.7128 959.568 52.6676 958.842 56.6073L935.36 55.5187C936.915 46.3952 941.01 39.5007 947.645 34.8352C954.384 30.0661 963.197 27.6815 974.083 27.6815C986.524 27.6815 995.855 30.6363 1002.08 36.5459C1008.4 42.4554 1011.56 51.1125 1011.56 62.5169V90.9762C1011.56 93.3607 1011.92 94.9677 1012.65 95.7971C1013.48 96.5229 1014.67 96.8857 1016.23 96.8857H1018.56V112.904C1017.83 113.111 1016.64 113.319 1014.98 113.526C1013.43 113.733 1011.87 113.837 1010.32 113.837C1007 113.837 1003.89 113.267 1000.99 112.126C998.188 110.986 995.907 109.068 994.144 106.372C992.382 103.573 991.501 99.6332 991.501 94.553L993.522 96.1082C992.486 99.8405 990.619 103.106 987.924 105.906C985.332 108.705 981.911 110.882 977.66 112.437C973.513 113.992 968.692 114.77 963.197 114.77ZM968.795 98.7519C972.631 98.7519 976.001 98.0262 978.904 96.5747C981.807 95.0196 984.088 92.7905 985.747 89.8876C987.405 86.9846 988.235 83.5633 988.235 79.6236V75.5802L969.262 79.6236C965.53 80.3493 962.678 81.5934 960.709 83.3559C958.842 85.0148 957.909 87.192 957.909 89.8876C957.909 92.6868 958.842 94.864 960.709 96.4192C962.575 97.9744 965.27 98.7519 968.795 98.7519ZM1019.92 112.904V29.5477H1042L1042.78 53.808L1041.07 53.3415C1042.42 44.9437 1044.8 38.8786 1048.22 35.1462C1051.65 31.4139 1056.36 29.5477 1062.38 29.5477H1070V48.8316H1062.38C1058.02 48.8316 1054.45 49.4018 1051.65 50.5422C1048.85 51.6827 1046.72 53.497 1045.27 55.9853C1043.92 58.4735 1043.25 61.843 1043.25 66.0937V112.904H1019.92ZM1070.69 112.904V29.5477H1091.69L1092.47 49.6091L1090.29 48.676C1091.43 44.2179 1093.14 40.4337 1095.42 37.3234C1097.81 34.2131 1100.66 31.8286 1103.97 30.1697C1107.29 28.5109 1110.92 27.6815 1114.86 27.6815C1121.81 27.6815 1127.41 29.7032 1131.66 33.7466C1136.01 37.79 1138.81 43.233 1140.05 50.0757L1137.1 50.2312C1138.03 45.3584 1139.64 41.2632 1141.92 37.9455C1144.3 34.5242 1147.21 31.9841 1150.63 30.3253C1154.05 28.5628 1157.89 27.6815 1162.14 27.6815C1167.94 27.6815 1172.92 28.8738 1177.07 31.2583C1181.21 33.6429 1184.43 37.2198 1186.71 41.9889C1188.99 46.6544 1190.13 52.4084 1190.13 59.2511V112.904H1166.8V65.7827C1166.8 59.2511 1165.82 54.3783 1163.85 51.1643C1161.88 47.8466 1158.66 46.1878 1154.21 46.1878C1151.41 46.1878 1149.02 46.9654 1147.05 48.5205C1145.08 50.0757 1143.53 52.3566 1142.39 55.3632C1141.35 58.2662 1140.83 61.843 1140.83 66.0937V112.904H1119.84V66.0937C1119.84 59.6658 1118.9 54.7411 1117.04 51.3198C1115.17 47.8985 1111.96 46.1878 1107.4 46.1878C1104.6 46.1878 1102.16 46.9654 1100.09 48.5205C1098.12 50.0757 1096.61 52.3566 1095.58 55.3632C1094.54 58.3698 1094.02 61.9467 1094.02 66.0937V112.904H1070.69ZM1233.47 114.77C1224.87 114.77 1217.66 113.578 1211.85 111.193C1206.05 108.705 1201.59 105.387 1198.48 101.24C1195.47 96.9894 1193.76 92.1166 1193.35 86.6217L1216.99 85.8442C1217.71 89.7839 1219.37 92.8424 1221.96 95.0196C1224.56 97.1968 1228.39 98.2854 1233.47 98.2854C1237.62 98.2854 1240.83 97.6115 1243.11 96.2637C1245.5 94.9159 1246.69 92.8424 1246.69 90.0431C1246.69 88.2806 1246.28 86.8291 1245.45 85.6887C1244.62 84.4445 1242.96 83.4078 1240.47 82.5784C1238.08 81.6453 1234.51 80.8158 1229.74 80.0901C1220.93 78.535 1214.03 76.7206 1209.06 74.6471C1204.08 72.5735 1200.55 69.8779 1198.48 66.5603C1196.41 63.2426 1195.37 59.1992 1195.37 54.4301C1195.37 46.447 1198.43 40.019 1204.55 35.1462C1210.77 30.1697 1220.05 27.6815 1232.38 27.6815C1240.26 27.6815 1246.85 28.9256 1252.13 31.4139C1257.52 33.9021 1261.67 37.3234 1264.57 41.6779C1267.58 45.9286 1269.45 50.8014 1270.17 56.2963L1246.69 57.2294C1246.38 54.5338 1245.55 52.2529 1244.2 50.3867C1242.96 48.4169 1241.35 46.9135 1239.38 45.8768C1237.41 44.7363 1235.03 44.1661 1232.23 44.1661C1228.08 44.1661 1224.87 45.0474 1222.59 46.8099C1220.41 48.4687 1219.32 50.6977 1219.32 53.497C1219.32 55.5706 1219.79 57.2812 1220.72 58.629C1221.76 59.8731 1223.41 60.9099 1225.7 61.7393C1227.98 62.5687 1231.03 63.2426 1234.87 63.761C1243.79 65.0051 1250.84 66.7676 1256.02 69.0485C1261.31 71.2257 1265.09 73.9732 1267.37 77.2908C1269.65 80.6085 1270.79 84.7037 1270.79 89.5765C1270.79 94.9677 1269.24 99.5295 1266.13 103.262C1263.02 106.994 1258.66 109.845 1253.07 111.815C1247.57 113.785 1241.04 114.77 1233.47 114.77Z" fill="#E2A918"/>
</svg>
